<?xml version="1.0" encoding="iso-8859-1"?>
<!-- Generator: Adobe Illustrator 17.1.0, SVG Export Plug-In . SVG Version: 6.00 Build 0)  -->
<!DOCTYPE svg PUBLIC "-//W3C//DTD SVG 1.1//EN" "http://www.w3.org/Graphics/SVG/1.1/DTD/svg11.dtd">
<svg version="1.1" id="Capa_1" xmlns="http://www.w3.org/2000/svg" xmlns:xlink="http://www.w3.org/1999/xlink" x="0px" y="0px"
	 viewBox="0 0 209.032 209.032" style="enable-background:new 0 0 209.032 209.032;" xml:space="preserve">
<path d="M77.069,199.272c-0.717,0-1.41-0.386-1.769-1.063c-0.514-0.971-0.15-2.173,0.813-2.694c0.185-0.104,3.725-2.176,4.539-8.146
	c0.452-3.317,1.127-12.302,1.416-21.844c-11.348-0.884-20.496-9.095-22.886-20.472c-4.917,1.638-10.472,1.162-15.094-1.313
	c-3.796,1.518-7.8,2.286-11.918,2.286C14.431,146.025,0,131.594,0,113.856c0-10.439,4.985-20.085,13.419-26.133
	c-1.509-3.641-2.273-7.5-2.273-11.497c0-16.602,13.507-30.108,30.109-30.108c2.197,0,4.386,0.241,6.531,0.718
	c4.063-13.419,16.348-22.623,30.552-22.623c1.699,0,3.409,0.139,5.106,0.415c1.971-8.611,9.657-14.867,18.686-14.867
	c8.868,0,16.397,5.941,18.553,14.37c0.418-0.02,0.833-0.029,1.241-0.029c7.182,0,13.889,2.71,19.032,7.661
	c3.339-1.172,6.826-1.766,10.384-1.766c17.323,0,31.416,14.093,31.416,31.416c0,2.229-0.237,4.451-0.706,6.627
	c5.265,3.434,8.478,9.296,8.478,15.647c0,0.01,0,0.02,0,0.029c10.821,2.804,18.504,12.602,18.504,23.931
	c0,12.749-9.692,23.276-22.095,24.602c0.294,1.262,0.442,2.554,0.442,3.862c0,9.431-7.672,17.104-17.104,17.104
	s-17.104-7.673-17.104-17.104c0-0.222,0.004-0.442,0.013-0.663c-5.025,2.784-10.648,4.237-16.5,4.237h-0.427
	c-3.077-0.004-4.769,0.002-7.294-0.742c-2.677,9.775-0.758,41.488,0.188,48.425c0.818,6.001,4.39,8.063,4.542,8.147
	c0.956,0.535,1.314,1.746,0.79,2.708c-0.524,0.961-1.714,1.329-2.683,0.816c-0.224-0.119-5.504-3.004-6.612-11.131
	c-1.018-7.465-2.998-40.574,0.07-50.549c2.086-6.784,9.025-8.86,14.601-10.529c3.293-0.986,6.404-1.917,7.716-3.488
	c3.096-3.71,8.994-9.773,13.758-8.719c2.957,0.657,9.314,2.368,9.583,2.441c1.066,0.287,1.698,1.385,1.411,2.451
	c-0.287,1.065-1.386,1.7-2.452,1.41c-0.065-0.017-6.54-1.76-9.41-2.398c-1.486-0.334-5.197,1.837-9.82,7.377
	c-2.083,2.495-5.754,3.594-9.64,4.758c-3.767,1.127-7.628,2.283-9.999,4.682c1.532,0.343,2.862,0.35,5.249,0.341h0.429
	c6.582,0,12.836-2.083,18.088-6.022c0.702-0.526,1.665-0.534,2.374-0.02c0.71,0.515,1.002,1.433,0.72,2.263
	c-0.461,1.357-0.695,2.772-0.695,4.205c0,7.226,5.878,13.104,13.104,13.104s13.104-5.878,13.104-13.104
	c0-1.708-0.33-3.379-0.98-4.965c-0.253-0.617-0.182-1.319,0.189-1.873c0.372-0.554,0.995-0.886,1.661-0.886
	c0.025,0,0.056,0.001,0.086,0.002c11.417-0.023,20.697-9.319,20.697-20.742c0-9.992-7.128-18.562-16.949-20.378
	c-1.02-0.188-1.727-1.126-1.627-2.158c0.049-0.506,0.072-0.972,0.072-1.424c0-5.401-2.957-10.354-7.716-12.924
	c-0.814-0.439-1.221-1.381-0.982-2.274c0.615-2.308,0.927-4.688,0.927-7.076c0-15.117-12.298-27.416-27.416-27.416
	c-3.495,0-6.911,0.656-10.153,1.949c-0.76,0.303-1.632,0.111-2.194-0.483c-4.488-4.747-10.55-7.361-17.069-7.361
	c-0.848,0-1.73,0.05-2.622,0.149c-1.064,0.105-2.031-0.622-2.196-1.678c-1.166-7.424-7.464-12.813-14.976-12.813
	c-7.722,0-14.203,5.781-15.075,13.447c-0.064,0.566-0.367,1.078-0.832,1.407c-0.466,0.328-1.048,0.443-1.603,0.316
	c-2.077-0.477-4.191-0.719-6.283-0.719c-13.024,0-24.205,8.846-27.188,21.512c-0.126,0.534-0.467,0.994-0.941,1.271
	c-0.476,0.275-1.042,0.343-1.57,0.189c-2.403-0.708-4.887-1.066-7.383-1.066c-14.397,0-26.109,11.712-26.109,26.108
	c0,3.975,0.87,7.79,2.584,11.34c0.44,0.912,0.13,2.009-0.722,2.555C8.863,95.335,4,104.208,4,113.856
	c0,15.532,12.637,28.169,28.169,28.169c3.903,0,7.69-0.788,11.254-2.344c0.597-0.259,1.281-0.213,1.837,0.123
	c2.396,1.453,5.127,2.221,7.9,2.221c2.329,0,4.586-0.528,6.709-1.569c0.583-0.285,1.269-0.271,1.839,0.041
	c0.57,0.311,0.954,0.88,1.028,1.525c1.234,10.674,9.261,18.594,19.426,19.495c0.166-9.421-0.123-18.692-1.442-22.981
	c-1.458-4.74-6.779-6.333-11.924-7.873c-3.886-1.164-7.557-2.263-9.64-4.758c-4.624-5.538-8.327-7.701-9.821-7.377
	c-2.87,0.639-9.345,2.382-9.41,2.398c-1.066,0.294-2.165-0.344-2.452-1.41s0.344-2.164,1.411-2.451
	c0.27-0.073,6.626-1.784,9.583-2.441c4.764-1.059,10.663,5.01,13.759,8.719c1.312,1.571,4.422,2.502,7.716,3.488
	c5.575,1.669,12.514,3.745,14.601,10.529c3.068,9.975,1.088,43.084,0.07,50.549c-1.108,8.127-6.388,11.012-6.612,11.131
	C77.705,199.198,77.384,199.272,77.069,199.272z M103.578,184.11c-0.425,0-0.854-0.135-1.217-0.414
	c-0.876-0.674-1.04-1.929-0.367-2.805h0c-0.003,0,2.145-3.317,1.034-13.055c-0.452-3.964-1.332-6.961-2.183-9.859
	c-1.447-4.928-2.942-10.023-2.126-19.293c0.531-6.031,1.395-10.104,2.263-12.836c0.021-0.084,0.047-0.166,0.08-0.247
	c1.172-3.579,2.335-4.75,2.686-5.038l2.536,3.094c0,0,0.037-0.023,0.097-0.087c-0.012,0.012-0.54,0.595-1.217,2.405
	c1.469,2.029,4.74,7.274,6.474,15.733c2.259,11.025-4.203,24.918-4.479,25.504c-0.043,0.091-0.091,0.177-0.146,0.258
	c1.285,11.406-1.521,15.436-1.847,15.858C104.771,183.841,104.178,184.11,103.578,184.11z M103.746,131.281
	c-0.396,2.042-0.764,4.59-1.043,7.755c-0.75,8.516,0.576,13.033,1.98,17.814c0.313,1.069,0.631,2.15,0.932,3.288
	c1.58-4.749,3.296-11.806,2.103-17.627C106.695,137.522,105.084,133.768,103.746,131.281z M125.614,121.36
	c-0.099,0-0.198-0.008-0.295-0.021c-0.286-0.043-7.002-1.153-8.157-10.577c-1.085-8.862,6.468-21.678,11.609-24.724
	c3.082-1.827,6.729-1.517,9.945-1.241c2.107,0.18,4.101,0.35,5.551-0.096c3.292-1.014,4.473-3.291,4.522-3.388
	c0.493-0.977,1.686-1.388,2.67-0.907c0.983,0.481,1.403,1.652,0.935,2.642c-0.076,0.159-1.91,3.925-6.951,5.476
	c-2.191,0.675-4.67,0.464-7.066,0.259c-2.873-0.246-5.586-0.476-7.566,0.697c-3.656,2.166-10.583,13.396-9.677,20.796
	c0.694,5.668,3.905,6.87,4.657,7.076c1.511-0.07,9.772-0.544,15.214-2.71c6.021-2.397,13.69-8.61,16.977-12.054
	c3.62-3.793,8.371-6.338,8.572-6.444c0.975-0.516,2.185-0.147,2.703,0.827s0.148,2.186-0.826,2.705
	c-0.043,0.023-4.393,2.36-7.556,5.674c-3.634,3.808-11.743,10.361-18.391,13.009c-6.634,2.641-16.391,2.987-16.803,3.001
	C125.658,121.36,125.636,121.36,125.614,121.36z M84.19,121.36c-0.022,0-0.043,0-0.065-0.001c-0.412-0.014-10.169-0.36-16.803-3.001
	c-6.648-2.647-14.756-9.201-18.391-13.009c-3.163-3.313-7.512-5.65-7.556-5.674c-0.974-0.52-1.344-1.73-0.826-2.705
	c0.52-0.975,1.73-1.343,2.703-0.827c0.201,0.106,4.952,2.651,8.572,6.444c3.287,3.443,10.956,9.656,16.977,12.054
	c5.463,2.175,13.734,2.643,15.222,2.71c0.697-0.188,3.95-1.366,4.649-7.076c0.906-7.399-6.021-18.63-9.677-20.796
	c-1.979-1.173-4.693-0.943-7.566-0.697c-2.396,0.205-4.875,0.417-7.066-0.259c-5.041-1.551-6.875-5.316-6.951-5.476
	c-0.473-0.998-0.047-2.19,0.951-2.664c0.999-0.474,2.19-0.047,2.664,0.951c0.038,0.075,1.219,2.353,4.511,3.366
	c1.45,0.445,3.442,0.275,5.551,0.096c3.218-0.274,6.864-0.585,9.945,1.241c5.141,3.046,12.694,15.861,11.609,24.724
	c-1.154,9.424-7.871,10.534-8.157,10.577C84.388,121.352,84.289,121.36,84.19,121.36z M170.476,113.917
	c-0.247,0-0.494-0.046-0.728-0.137c-0.066-0.015-0.147-0.03-0.241-0.05c-1.645-0.339-5.496-1.132-6.106-4.305
	c-0.617-3.203,3.731-6.439,6.377-8.084c0.938-0.583,2.17-0.294,2.753,0.644s0.296,2.17-0.642,2.754
	c-2.074,1.292-4.182,3.167-4.518,3.995c0.156,0.188,0.747,0.626,2.942,1.079c0.623,0.128,1.115,0.229,1.575,0.689
	c0.781,0.781,0.781,2.047,0,2.828C171.5,113.721,170.987,113.917,170.476,113.917z M39.329,113.917
	c-0.511,0-1.022-0.194-1.412-0.584c-0.782-0.78-0.784-2.046-0.004-2.828c0.46-0.462,0.953-0.563,1.577-0.692
	c2.176-0.448,2.775-0.882,2.94-1.081c-0.34-0.834-2.445-2.705-4.515-3.991c-0.938-0.583-1.227-1.816-0.644-2.755
	c0.583-0.938,1.817-1.227,2.754-0.644c2.646,1.645,6.994,4.88,6.377,8.084c-0.61,3.173-4.461,3.966-6.105,4.305
	c-0.093,0.02-0.175,0.035-0.241,0.05C39.823,113.871,39.576,113.917,39.329,113.917z M105.016,105.042c-0.076,0-0.151,0-0.227,0
	c-5.062,0-9.602-7.697-13.258-13.896c-1.106-1.876-2.484-4.211-3.002-4.66c-3.092-2.68-6.251-7.872-6.337-13.433
	c-0.073-4.74-2.963-10.721-2.992-10.781c-0.484-0.992-0.071-2.189,0.921-2.674c0.994-0.483,2.19-0.071,2.674,0.922
	c0.135,0.276,3.31,6.851,3.396,12.472c0.066,4.301,2.616,8.442,4.958,10.471c0.967,0.839,1.978,2.515,3.828,5.651
	c2.3,3.899,7.083,11.981,9.837,11.929c0.029-0.001,0.041,0.006,0.089-0.002c0.013,0.01,0.059,0.001,0.089,0.002
	c0.013,0,0.027,0,0.04,0c2.761,0,7.508-8.048,9.797-11.929c1.85-3.137,2.861-4.813,3.828-5.651c2.342-2.028,4.892-6.17,4.958-10.472
	c0.086-5.62,3.261-12.194,3.396-12.471c0.483-0.993,1.68-1.403,2.673-0.922c0.993,0.483,1.406,1.681,0.923,2.673
	c-0.029,0.061-2.92,6.06-2.992,10.781c-0.086,5.562-3.246,10.754-6.338,13.434c-0.518,0.449-1.896,2.784-3.002,4.66
	C114.617,97.345,110.077,105.042,105.016,105.042z M69.821,81.764c-2.61,0-4.892-1.131-6.114-2.1
	c-0.866-0.687-1.011-1.945-0.324-2.811c0.682-0.861,1.933-1.01,2.799-0.332c0.362,0.28,3.635,2.652,6.831,0.03
	c1.108-0.911,2.53-3.569-0.408-11.142c-0.147-0.381-0.236-0.641-0.262-0.744c-0.269-1.071,0.382-2.157,1.454-2.426
	c1.07-0.267,2.158,0.382,2.426,1.453c-0.004-0.012,0.045,0.101,0.112,0.271c2.935,7.566,2.672,12.841-0.782,15.679
	C73.649,81.207,71.654,81.764,69.821,81.764z M139.983,81.764c-1.833,0-3.828-0.558-5.731-2.122
	c-3.454-2.837-3.717-8.111-0.782-15.678c0.063-0.164,0.112-0.286,0.138-0.361c0.268-1.071,1.339-1.679,2.414-1.408
	c1.071,0.269,1.709,1.4,1.44,2.472c-0.026,0.104-0.115,0.363-0.262,0.744c-2.938,7.572-1.517,10.23-0.408,11.141
	c3.195,2.624,6.468,0.249,6.831-0.029c0.872-0.671,2.125-0.518,2.802,0.348c0.677,0.866,0.534,2.111-0.327,2.795
	C144.875,80.633,142.594,81.764,139.983,81.764z"/>
<g>
</g>
<g>
</g>
<g>
</g>
<g>
</g>
<g>
</g>
<g>
</g>
<g>
</g>
<g>
</g>
<g>
</g>
<g>
</g>
<g>
</g>
<g>
</g>
<g>
</g>
<g>
</g>
<g>
</g>
</svg>
