<?xml version="1.0" encoding="iso-8859-1"?>
<!-- Generator: Adobe Illustrator 19.0.0, SVG Export Plug-In . SVG Version: 6.00 Build 0)  -->
<svg version="1.1" id="Layer_1" xmlns="http://www.w3.org/2000/svg" xmlns:xlink="http://www.w3.org/1999/xlink" x="0px" y="0px"
	 viewBox="0 0 512 512" style="enable-background:new 0 0 512 512;" xml:space="preserve">
<g>
	<g>
		<path d="M510.889,404.216l-114.945-199.09c-2.289-3.965-7.359-5.323-11.324-3.034c-3.965,2.289-5.323,7.359-3.034,11.324
			l107.765,186.654h-161.57L180.001,144.11h161.57l23.776,41.182c1.535,2.659,4.322,4.146,7.187,4.146
			c1.406,0,2.832-0.358,4.137-1.112c3.965-2.289,5.323-7.359,3.034-11.324l-25.058-43.403v-29.961c0-4.578-3.712-8.29-8.29-8.29
			c-4.578,0-8.29,3.712-8.29,8.29v23.89H173.932v-23.89c0-4.578-3.712-8.29-8.29-8.29s-8.29,3.712-8.29,8.29v29.96L1.111,404.216
			c-1.481,2.566-1.481,5.725,0,8.29c1.481,2.566,4.217,4.145,7.179,4.145h198.753c4.578,0,8.29-3.712,8.29-8.29
			s-3.712-8.29-8.29-8.29h-33.111V166.759l134.703,233.313h-68.434c-4.578,0-8.29,3.712-8.29,8.29s3.712,8.29,8.29,8.29H503.71
			c2.962,0,5.698-1.58,7.179-4.145C512.37,409.941,512.37,406.782,510.889,404.216z M22.649,400.071l120.595-208.878L90.993,400.071
			H22.649z M157.353,400.071h-49.268l49.268-196.95V400.071z"/>
	</g>
</g>
<g>
</g>
<g>
</g>
<g>
</g>
<g>
</g>
<g>
</g>
<g>
</g>
<g>
</g>
<g>
</g>
<g>
</g>
<g>
</g>
<g>
</g>
<g>
</g>
<g>
</g>
<g>
</g>
<g>
</g>
</svg>
