<svg xmlns="http://www.w3.org/2000/svg" viewBox="0 0 125.43 108.5"><title>资源 27</title><g id="图层_2" data-name="图层 2"><g id="图层_1-2" data-name="图层 1"><path d="M125.18,64.7l-29.46-17V5.24a1.89,1.89,0,0,0-.94-1.64,2.67,2.67,0,0,0-.36-.14.48.48,0,0,0-.19-.23L88.74.07a.46.46,0,0,0-.41,0,.48.48,0,0,0-.3.29L85,8.15,48.82,29a3.22,3.22,0,0,0-.88.76l-6.23-3.6a.56.56,0,0,0-.42,0,.51.51,0,0,0-.3.29l-7.31,19L.25,64.7a.5.5,0,0,0-.25.43v7a.5.5,0,0,0,.25.43l62.21,35.92a.59.59,0,0,0,.25.07.52.52,0,0,0,.25-.07l62.22-35.92a.5.5,0,0,0,.25-.43v-7A.5.5,0,0,0,125.18,64.7ZM94.72,56.9l-22.46-13L85.81,8.84l7.57-4.37a.9.9,0,0,1,.9,0,.89.89,0,0,1,.44.77Zm-6-55.67,4.13,2.38-6.5,3.75ZM48.23,31.8a2.2,2.2,0,0,1,1.09-1.89L84.43,9.64,71.28,43.69,48.23,57V31.8Zm-6.52-4.44,5.73,3.31a3.1,3.1,0,0,0-.21,1.13V57.58L25.12,70.34Zm5.52,56.87L25.14,71.48,47.23,58.73ZM33.1,46.88,23.68,71.3a0,0,0,0,0,0,0,.19.19,0,0,0,0,.08.31.31,0,0,0,0,.1s0,0,0,.07a.36.36,0,0,0,0,.11.06.06,0,0,0,0,0s0,0,0,0a.49.49,0,0,0,.16.16h0L47.48,85.53h0a.44.44,0,0,0,.23.06.43.43,0,0,0,.22-.06h0l0,0a.53.53,0,0,0,.13-.13l0-.05a.45.45,0,0,0,.07-.23V58.15L71.56,44.68,95,58.2a.47.47,0,0,0,.25.07.5.5,0,0,0,.43-.25.43.43,0,0,0,.06-.29s0,0,0-.06V48.84l28.21,16.29L62.71,100.47,1.5,65.13ZM1,66l61.21,35.34v5.79L1,71.79Zm123.43,5.79L63.21,107.13v-5.79L124.43,66Z"/></g></g></svg>